<svg id="brightness" xmlns="http://www.w3.org/2000/svg" width="12.011" height="13.726" viewBox="0 0 12.011 13.726">
  <path id="Path_1" data-name="Path 1" d="M72.591,100.289A4.289,4.289,0,1,1,68.3,96,4.289,4.289,0,0,1,72.591,100.289Zm0,0" transform="translate(-62.296 -93.426)" fill="#ffff00"/>
  <path id="Path_2" data-name="Path 2" d="M202.68.572V1.55a.572.572,0,1,0,1.144,0V.572a.572.572,0,1,0-1.144,0Zm0,0" transform="translate(-197.247)" fill="#ffff00"/>
  <path id="Path_3" data-name="Path 3" d="M.83,120a.572.572,0,1,0-.516,1.021l.829.419a.572.572,0,0,0,.516-1.021Zm0,0" transform="translate(0 -116.719)" fill="#ffff00"/>
  <path id="Path_4" data-name="Path 4" d="M1.16,333.8l-.829.419a.572.572,0,0,0,.516,1.021l.829-.419A.572.572,0,0,0,1.16,333.8Zm0,0" transform="translate(-0.016 -324.789)" fill="#ffff00"/>
  <path id="Path_5" data-name="Path 5" d="M203.252,432.832a.572.572,0,0,0-.572.572v.979a.572.572,0,1,0,1.144,0V433.4A.572.572,0,0,0,203.252,432.832Zm0,0" transform="translate(-197.247 -421.229)" fill="#ffff00"/>
  <path id="Path_6" data-name="Path 6" d="M376.055,334.228l-.829-.419a.572.572,0,0,0-.516,1.021l.829.419a.572.572,0,0,0,.516-1.021Zm0,0" transform="translate(-364.359 -324.8)" fill="#ffff00"/>
  <path id="Path_7" data-name="Path 7" d="M375.559,119.977l-.829.419a.572.572,0,0,0,.516,1.021l.829-.419a.572.572,0,0,0-.516-1.021Zm0,0" transform="translate(-364.378 -116.7)" fill="#ffff00"/>
</svg>
