<svg id="night-mode" xmlns="http://www.w3.org/2000/svg" width="13.726" height="13.726" viewBox="0 0 13.726 13.726">
  <path id="Path_8" data-name="Path 8" d="M331.4,1.635a.4.4,0,0,0,0,.8,1.208,1.208,0,0,1,1.206,1.206.4.4,0,0,0,.8,0,1.208,1.208,0,0,1,1.206-1.206.4.4,0,1,0,0-.8A1.231,1.231,0,0,1,333.413.4a.4.4,0,0,0-.8,0A1.231,1.231,0,0,1,331.4,1.635Z" transform="translate(-322.127)" fill="#000"/>
  <path id="Path_9" data-name="Path 9" d="M181,93.815a.4.4,0,0,0,.4.4,2.013,2.013,0,0,1,2.011,2.011.4.4,0,0,0,.8,0,2.013,2.013,0,0,1,2.011-2.011.4.4,0,1,0,0-.8,2.013,2.013,0,0,1-2.011-2.011.4.4,0,0,0-.8,0,2.013,2.013,0,0,1-2.011,2.011A.4.4,0,0,0,181,93.815Z" transform="translate(-176.148 -88.56)" fill="#000"/>
  <path id="Path_10" data-name="Path 10" d="M6.863,13.726a6.973,6.973,0,0,0,6.859-5.933.4.4,0,0,0-.734-.277A4.984,4.984,0,0,1,8.873,9.678,4.831,4.831,0,0,1,4.048,4.853,4.985,4.985,0,0,1,6.209.737.4.4,0,0,0,5.933,0,6.974,6.974,0,0,0,0,6.863a6.89,6.89,0,0,0,6.863,6.863Z" transform="translate(0 -0.001)" fill="#000"/>
</svg>
